# xmcd
#
# Track frame offsets:
#   150
#   20163
#   32517
#   49573
#   71083
#   88837
#   108938
#   131227
#   150746
#   169430
#   191365
#   210721
#   232231
#   251129
#   269094
#   291997
#   310629
#
# Disc length: 4359 seconds
#
# Revision: 0
# Processed by: cddbd v1.5.1PL0 Copyright (c) Steve Scherf et al.
# Submitted via: uFREEDB 1.6.2
#
DISCID=05110511
DTITLE=003 - 003
DYEAR=1900
DGENRE=Dance
TTITLE0=038
TTITLE1=039
TTITLE2=040
TTITLE3=041
TTITLE4=042
TTITLE5=043
TTITLE6=044
TTITLE7=045
TTITLE8=046
TTITLE9=047
TTITLE10=048
TTITLE11=049
TTITLE12=050
TTITLE13=051
TTITLE14=052
TTITLE15=053
TTITLE16=054
EXTD=
EXTT0=
EXTT1=
EXTT2=
EXTT3=
EXTT4=
EXTT5=
EXTT6=
EXTT7=
EXTT8=
EXTT9=
EXTT10=
EXTT11=
EXTT12=
EXTT13=
EXTT14=
EXTT15=
EXTT16=
PLAYORDER=
